<?xml version="1.0" encoding="UTF-8" standalone="no"?>
<svg
   xmlns:dc="http://purl.org/dc/elements/1.1/"
   xmlns:cc="http://creativecommons.org/ns#"
   xmlns:rdf="http://www.w3.org/1999/02/22-rdf-syntax-ns#"
   xmlns:svg="http://www.w3.org/2000/svg"
   xmlns="http://www.w3.org/2000/svg"
   xmlns:sodipodi="http://sodipodi.sourceforge.net/DTD/sodipodi-0.dtd"
   xmlns:inkscape="http://www.inkscape.org/namespaces/inkscape"
   version="1.1"
   id="svg2"
   xml:space="preserve"
   width="295.01334"
   height="174.93333"
   viewBox="0 0 295.01334 174.93333"
   sodipodi:docname="logo-01.eps"><metadata
     id="metadata8"><rdf:RDF><cc:Work
         rdf:about=""><dc:format>image/svg+xml</dc:format><dc:type
           rdf:resource="http://purl.org/dc/dcmitype/StillImage" /></cc:Work></rdf:RDF></metadata><defs
     id="defs6"><clipPath
       clipPathUnits="userSpaceOnUse"
       id="clipPath20"><path
         d="M 290.32,398.027 H 252.336 V 78.2188 H 343.75 V 62.5391 H 56.6914 V 80.1094 H 130.777 V 698.613 H 56.6914 v 19.473 H 517.785 l -2.844,-181.879 h -18.515 c 0,4.602 -3.805,16.863 -11.395,36.813 -3.648,9.972 -7.929,19.972 -12.832,30.035 -4.894,10.05 -10.363,20.293 -16.375,30.742 -6.019,10.449 -12.113,19.433 -18.281,26.953 -6.184,7.508 -12.832,13.648 -19.945,18.391 -8.543,5.707 -19.121,10.375 -31.703,14.011 -12.579,3.649 -27.262,5.461 -44.036,5.461 H 252.336 V 419.391 c 3.644,0 7.879,-0.039 12.711,-0.118 4.82,-0.078 10.558,-0.191 17.211,-0.343 6.648,-0.168 12.187,-0.285 16.609,-0.364 4.442,-0.089 8.004,-0.128 10.699,-0.128 13.93,0 25.918,0.644 35.969,1.902 10.051,1.273 18.399,3.098 25.051,5.465 16.453,5.859 27.445,16.539 33,32.054 3.793,10.45 6.602,21.887 8.43,34.317 1.82,12.414 2.73,26.078 2.73,40.949 H 433.27 V 272.66 h -17.579 c 0,36.879 -2.699,61.504 -8.07,73.844 -7.594,17.723 -19.148,30.305 -34.66,37.746 -9.027,4.281 -20.387,7.637 -34.07,10.09 -13.707,2.457 -29.879,3.687 -48.571,3.687 z"
         id="path18" /></clipPath><linearGradient
       x1="0"
       y1="0"
       x2="1"
       y2="0"
       gradientUnits="userSpaceOnUse"
       gradientTransform="matrix(2340,1230,1230,-2340,-120.188,221.89)"
       spreadMethod="pad"
       id="linearGradient36"><stop
         style="stop-opacity:1;stop-color:#fce28d"
         offset="0"
         id="stop22" /><stop
         style="stop-opacity:1;stop-color:#fce28d"
         offset="0"
         id="stop24" /><stop
         style="stop-opacity:1;stop-color:#957427"
         offset="0.227907"
         id="stop26" /><stop
         style="stop-opacity:1;stop-color:#c09e4b"
         offset="0.413953"
         id="stop28" /><stop
         style="stop-opacity:1;stop-color:#eebc49"
         offset="0.586047"
         id="stop30" /><stop
         style="stop-opacity:1;stop-color:#c1a35c"
         offset="0.772093"
         id="stop32" /><stop
         style="stop-opacity:1;stop-color:#faf19f"
         offset="1"
         id="stop34" /></linearGradient><clipPath
       clipPathUnits="userSpaceOnUse"
       id="clipPath46"><path
         d="m 666.43,694.578 c 8.691,0.156 17.011,-1.543 24.922,-5.101 7.91,-3.563 14.921,-8.356 21.011,-14.36 6.102,-6.027 10.879,-12.902 14.364,-20.664 3.492,-7.75 5.14,-15.746 4.98,-23.973 -0.316,-9.984 -1.926,-19.046 -4.859,-27.195 -2.926,-8.148 -7.715,-15.551 -14.364,-22.195 -12.824,-13.137 -28.175,-19.703 -46.054,-19.703 -17.899,0 -32.93,6.566 -45.121,19.703 -12.028,12.98 -18.051,29.445 -18.051,49.39 0,16.774 6.097,31.735 18.289,44.872 12.031,12.503 26.984,18.906 44.883,19.226 z M 570.965,77.0195 h 45.601 V 459.285 h -45.601 v 15.668 H 763.293 V 459.285 H 716.762 V 77.0195 h 47.48 V 62.5391 H 570.965 Z"
         id="path44" /></clipPath><linearGradient
       x1="0"
       y1="0"
       x2="1"
       y2="0"
       gradientUnits="userSpaceOnUse"
       gradientTransform="matrix(2340,1230,1230,-2340,-5.50409,3.71008)"
       spreadMethod="pad"
       id="linearGradient62"><stop
         style="stop-opacity:1;stop-color:#fce28d"
         offset="0"
         id="stop48" /><stop
         style="stop-opacity:1;stop-color:#fce28d"
         offset="0"
         id="stop50" /><stop
         style="stop-opacity:1;stop-color:#957427"
         offset="0.227907"
         id="stop52" /><stop
         style="stop-opacity:1;stop-color:#c09e4b"
         offset="0.413953"
         id="stop54" /><stop
         style="stop-opacity:1;stop-color:#eebc49"
         offset="0.586047"
         id="stop56" /><stop
         style="stop-opacity:1;stop-color:#c1a35c"
         offset="0.772093"
         id="stop58" /><stop
         style="stop-opacity:1;stop-color:#faf19f"
         offset="1"
         id="stop60" /></linearGradient><clipPath
       clipPathUnits="userSpaceOnUse"
       id="clipPath72"><path
         d="m 1104.25,215.199 v 95.211 c 0,23.91 -2.37,44.395 -7.12,61.5 -4.75,17.098 -11.17,31.656 -19.24,43.688 -15.99,24.062 -35.06,37.351 -57.22,39.894 h -9.73 c -27.069,0 -47.889,-16.785 -62.456,-50.344 -14.238,-33.558 -21.359,-78.347 -21.359,-134.386 0,-0.321 0.199,-1.313 0.598,-2.973 0.386,-1.66 0.586,-3.289 0.586,-4.867 0.476,-33.231 2.73,-61.961 6.773,-86.184 4.035,-24.218 9.852,-44.25 17.453,-60.066 7.582,-15.832 16.891,-27.6603 27.883,-35.4806 11.008,-7.8633 23.792,-12.0898 38.352,-12.7226 l 0.95,-1.1875 c 21.05,0 40.37,11.789 57.94,35.3667 17.73,23.43 26.59,60.954 26.59,112.551 z m -0.96,183.781 v 304.387 h -66.24 v 14.719 H 1203.5 V 77.0195 h 44.64 V 62.5391 H 1106.15 V 130.68 c -5.07,-14.41 -11.16,-26.551 -18.28,-36.4495 -7.13,-9.8907 -15.43,-17.6094 -24.94,-23.1524 -9.49,-5.3789 -19.34,-8.9375 -29.56,-10.6797 -10.2,-1.7382 -21.24,-2.6171 -33.12,-2.6171 h -9.727 c -17.257,0 -33.207,1.2187 -47.851,3.6796 -14.641,2.461 -28.129,7.4883 -40.481,15.0704 -14.242,9.039 -26.117,19.6406 -35.613,31.8277 -9.5,12.18 -17.816,25.961 -24.922,41.321 -7.293,15.82 -12.672,32.242 -16.156,49.261 -3.477,17.02 -5.227,35.098 -5.227,54.25 l 0.961,3.809 c 0.789,37.98 8.149,73.207 22.075,105.645 7.132,16.312 15.593,30.988 25.41,44.046 9.812,13.059 21.441,24.575 34.898,34.547 26.434,19.782 57.301,29.68 92.606,29.68 6.647,0 12.377,-0.078 17.207,-0.234 4.82,-0.164 8.82,-0.399 11.99,-0.719 35.94,-10.281 61.9,-33.957 77.87,-70.985 z"
         id="path70" /></clipPath><linearGradient
       x1="0"
       y1="0"
       x2="1"
       y2="0"
       gradientUnits="userSpaceOnUse"
       gradientTransform="matrix(2340,1230,1230,-2340,83.8215,-166.22)"
       spreadMethod="pad"
       id="linearGradient88"><stop
         style="stop-opacity:1;stop-color:#fce28d"
         offset="0"
         id="stop74" /><stop
         style="stop-opacity:1;stop-color:#fce28d"
         offset="0"
         id="stop76" /><stop
         style="stop-opacity:1;stop-color:#957427"
         offset="0.227907"
         id="stop78" /><stop
         style="stop-opacity:1;stop-color:#c09e4b"
         offset="0.413953"
         id="stop80" /><stop
         style="stop-opacity:1;stop-color:#eebc49"
         offset="0.586047"
         id="stop82" /><stop
         style="stop-opacity:1;stop-color:#c1a35c"
         offset="0.772093"
         id="stop84" /><stop
         style="stop-opacity:1;stop-color:#faf19f"
         offset="1"
         id="stop86" /></linearGradient><clipPath
       clipPathUnits="userSpaceOnUse"
       id="clipPath98"><path
         d="m 1430.24,305.672 h 165.26 c 0,3.469 -0.32,5.769 -0.95,6.875 -0.63,1.105 -0.94,3.328 -0.94,6.656 v 45.82 c -4.13,22.004 -8.52,39.973 -13.2,53.907 -4.66,13.918 -9.53,24.687 -14.6,32.285 -10.27,15.191 -27.93,22.789 -52.94,22.789 -22.32,-4.113 -39.49,-14.797 -51.52,-32.059 -6.02,-8.699 -11.08,-18.043 -15.2,-28.004 -4.12,-9.972 -7.2,-20.898 -9.26,-32.773 -2.05,-11.863 -3.64,-23.945 -4.74,-36.207 -1.12,-12.273 -1.75,-25.371 -1.91,-39.289 z m 271.16,-18.524 h -271.16 v -16.386 c 0,-0.793 -0.2,-1.903 -0.58,-3.332 -0.4,-1.41 -0.6,-2.282 -0.6,-2.61 0,-16.769 0.35,-32.398 1.07,-46.879 0.71,-14.492 1.94,-28.14 3.68,-40.961 1.74,-12.511 4.55,-24.378 8.42,-35.621 3.88,-11.238 9.15,-21.918 15.79,-32.05 6.65,-9.977 14.73,-17.8481 24.22,-23.6293 9.5,-5.7813 20.97,-9.9414 34.43,-12.4609 6.65,-1.2579 12.15,-2.379 16.5,-3.3282 4.35,-0.9414 7.64,-1.4218 9.86,-1.4218 18.52,0 37.51,5.4531 56.98,16.3828 19.63,11.0781 36.32,26.5894 50.1,46.5394 13.92,20.097 21.69,42.5 23.27,67.187 h 21.36 c -3.32,-27.699 -13.05,-52.547 -29.2,-74.558 -8.07,-11.059 -16.89,-21.051 -26.47,-29.9184 -9.58,-8.8516 -20.3,-16.2813 -32.18,-22.3008 -5.69,-2.8516 -11.39,-5.0391 -17.09,-6.5391 -5.7,-1.5 -11.48,-2.6133 -17.33,-3.332 -5.86,-0.6992 -11.64,-1.0899 -17.33,-1.1797 -5.7,-0.0586 -11.39,-0.1016 -17.09,-0.1016 -5.08,0 -9.51,0.043 -13.31,0.1016 -3.8,0.0898 -6.8,0.3594 -9.01,0.8203 -9.35,0.3203 -18.26,0.6797 -26.72,1.0781 -8.47,0.4024 -16.7,1.1836 -24.69,2.3829 -8,1.1992 -15.84,3.0781 -23.51,5.6875 -7.67,2.6093 -15.4,6.3828 -23.15,11.2695 -14.88,9.5 -28.21,20.6597 -40.01,33.4997 -11.79,12.813 -22.2,27.621 -31.23,44.391 -17.4,32.609 -26.11,68.551 -26.11,107.801 0,39.57 8.71,76.371 26.11,110.402 17.26,34.031 40.77,60.934 70.53,80.727 29.76,19.781 61.73,29.679 95.92,29.679 32.6,0 63.08,-9.023 91.41,-27.07 28.02,-17.723 50.74,-42.18 68.15,-73.363 17.1,-30.551 26.74,-64.184 28.97,-100.907 z"
         id="path96" /></clipPath><linearGradient
       x1="0"
       y1="0"
       x2="1"
       y2="0"
       gradientUnits="userSpaceOnUse"
       gradientTransform="matrix(2340,1230,1230,-2340,215.022,-415.82)"
       spreadMethod="pad"
       id="linearGradient114"><stop
         style="stop-opacity:1;stop-color:#fce28d"
         offset="0"
         id="stop100" /><stop
         style="stop-opacity:1;stop-color:#fce28d"
         offset="0"
         id="stop102" /><stop
         style="stop-opacity:1;stop-color:#957427"
         offset="0.227907"
         id="stop104" /><stop
         style="stop-opacity:1;stop-color:#c09e4b"
         offset="0.413953"
         id="stop106" /><stop
         style="stop-opacity:1;stop-color:#eebc49"
         offset="0.586047"
         id="stop108" /><stop
         style="stop-opacity:1;stop-color:#c1a35c"
         offset="0.772093"
         id="stop110" /><stop
         style="stop-opacity:1;stop-color:#faf19f"
         offset="1"
         id="stop112" /></linearGradient><clipPath
       clipPathUnits="userSpaceOnUse"
       id="clipPath124"><path
         d="m 2053.74,484.695 h 12.59 V 356.23 h -13.77 c -11.24,36.583 -27.55,64.985 -48.91,85.254 -21.69,20.254 -46.86,30.383 -75.51,30.383 h -12.57 c -37.21,0 -58.97,-16.863 -65.31,-50.574 0,-17.727 4.56,-32.57 13.66,-44.523 9.1,-11.954 22.75,-21.719 40.96,-29.313 l 49.62,-20.426 c 26.74,-7.75 49.04,-16.859 66.84,-27.301 17.8,-10.449 31.94,-22.402 42.38,-35.859 20.57,-26.269 30.86,-54.133 30.86,-83.562 0,-2.059 -0.12,-4.278 -0.34,-6.661 -0.25,-2.367 -0.49,-4.668 -0.72,-6.878 -0.24,-2.219 -0.48,-4.2 -0.72,-5.942 -0.24,-1.738 -0.36,-3.078 -0.36,-4.027 -3.47,-24.539 -12.74,-45.039 -27.77,-61.5002 -7.29,-8.0703 -15.2,-14.6406 -23.75,-19.711 -8.54,-5.0703 -17.88,-9.4179 -28.02,-13.0507 -5.06,-1.7383 -9.92,-3.0078 -14.6,-3.8086 -4.67,-0.7813 -9.25,-1.3321 -13.77,-1.6602 -4.5,-0.3203 -9.03,-0.4297 -13.52,-0.3594 -4.53,0.0782 -9.07,0.1289 -13.66,0.1289 -0.8,0 -1.82,0.0391 -3.09,0.1211 -1.26,0.0704 -2.77,0.1875 -4.51,0.3594 -1.74,0.1485 -3.32,0.2695 -4.75,0.3594 -1.43,0.0703 -2.53,0.1016 -3.32,0.1016 -13.15,0.1679 -25.26,2.0703 -36.33,5.707 -11.08,3.6211 -21.17,8.0703 -30.28,13.293 -9.1,5.207 -17.3,10.7695 -24.56,16.6171 -7.29,5.8399 -13.77,11.1716 -19.47,15.9106 -5.55,0 -9.74,-2.207 -12.59,-6.661 -2.69,-4.2496 -5.54,-11.7066 -8.55,-22.3082 -1.59,-5.0703 -3,-8.7812 -4.28,-11.1484 -1.26,-2.3906 -2.53,-4.6133 -3.79,-6.6523 h -13.78 V 209.262 h 13.78 c 33.55,-91.16 81.83,-139.762 144.83,-145.7737 0.16,0 0.72,-0.0391 1.67,-0.1172 0.94,-0.0898 1.98,-0.1992 3.08,-0.3594 1.11,-0.1523 2.23,-0.2812 3.32,-0.3633 1.12,-0.0781 1.98,-0.1093 2.62,-0.1093 21.68,0 40.68,5.5429 56.98,16.6015 16.77,11.25 25.96,27.8004 27.55,49.6404 -1.59,19.149 -7.37,34.969 -17.34,47.489 -5.07,6.32 -12.19,12.742 -21.36,19.23 -9.19,6.488 -21.22,12.43 -36.1,17.809 l -83.57,30.152 c -15.36,5.539 -28.61,12.418 -39.78,20.66 -11.15,8.219 -20.34,17.449 -27.53,27.66 -7.21,10.199 -12.55,21.254 -16.04,33.117 -3.48,11.875 -5.22,24.29 -5.22,37.274 0,0.32 0.16,1.105 0.49,2.375 0.31,1.262 0.47,2.058 0.47,2.379 2.69,41.461 14.95,72.012 36.79,91.652 22.01,19.934 51.53,29.91 88.57,29.91 h 11.88 c 25.79,0 57.85,-14.871 96.15,-44.64 11.88,13.148 20.02,26.761 24.45,40.847 z"
         id="path122" /></clipPath><linearGradient
       x1="0"
       y1="0"
       x2="1"
       y2="0"
       gradientUnits="userSpaceOnUse"
       gradientTransform="matrix(2340,1230,1230,-2340,305.774,-588.48)"
       spreadMethod="pad"
       id="linearGradient140"><stop
         style="stop-opacity:1;stop-color:#fce28d"
         offset="0"
         id="stop126" /><stop
         style="stop-opacity:1;stop-color:#fce28d"
         offset="0"
         id="stop128" /><stop
         style="stop-opacity:1;stop-color:#957427"
         offset="0.227907"
         id="stop130" /><stop
         style="stop-opacity:1;stop-color:#c09e4b"
         offset="0.413953"
         id="stop132" /><stop
         style="stop-opacity:1;stop-color:#eebc49"
         offset="0.586047"
         id="stop134" /><stop
         style="stop-opacity:1;stop-color:#c1a35c"
         offset="0.772093"
         id="stop136" /><stop
         style="stop-opacity:1;stop-color:#faf19f"
         offset="1"
         id="stop138" /></linearGradient><clipPath
       clipPathUnits="userSpaceOnUse"
       id="clipPath150"><path
         d="m 1511.11,1242.9 c -6.67,1.67 -13.35,2.9 -20.05,3.98 v -135.54 c 0,-14.68 0.97,-28.2 2.64,-40.82 10.74,-80.793 54.65,-120.586 116.27,-133.758 11.88,-2.543 24.33,-4.203 37.42,-4.844 v 226.602 c -35.06,40.53 -80.96,70.48 -136.28,84.38 z"
         id="path148" /></clipPath><linearGradient
       x1="0"
       y1="0"
       x2="1"
       y2="0"
       gradientUnits="userSpaceOnUse"
       gradientTransform="matrix(2340,1230,1230,-2340,-111.738,205.82)"
       spreadMethod="pad"
       id="linearGradient166"><stop
         style="stop-opacity:1;stop-color:#fce28d"
         offset="0"
         id="stop152" /><stop
         style="stop-opacity:1;stop-color:#fce28d"
         offset="0"
         id="stop154" /><stop
         style="stop-opacity:1;stop-color:#957427"
         offset="0.227907"
         id="stop156" /><stop
         style="stop-opacity:1;stop-color:#c09e4b"
         offset="0.413953"
         id="stop158" /><stop
         style="stop-opacity:1;stop-color:#eebc49"
         offset="0.586047"
         id="stop160" /><stop
         style="stop-opacity:1;stop-color:#c1a35c"
         offset="0.772093"
         id="stop162" /><stop
         style="stop-opacity:1;stop-color:#faf19f"
         offset="1"
         id="stop164" /></linearGradient><clipPath
       clipPathUnits="userSpaceOnUse"
       id="clipPath176"><path
         d="m 2129.47,1222.12 c -56.02,19.62 -112.01,32.65 -170.38,33.21 v -134.75 c 0,-27.22 -2.97,-52.04 -8.2,-74.83 -20.45,-89.133 -78.7,-144.461 -158.92,-166.762 -21.21,-5.886 -43.85,-9.613 -67.81,-10.898 v -81.254 c 1.26,-6.027 2.52,-12.059 3.85,-18.086 5.75,-26.129 7.56,-57.914 36.72,-69.145 12.46,-4.808 29.05,-0.605 33.2,-17.199 2.79,-11.336 -0.87,-23.211 1.27,-34.597 3,-16.235 9.83,-24.036 26.39,-16.672 12.35,5.465 22.28,15.769 34.74,20.769 6.51,2.61 23,4.977 38,3.832 14.43,-3.922 26.56,-14.343 32.49,-32.968 1.86,-12.942 2.4,-26.192 5.08,-39.02 1.2,-5.898 16.21,-54.559 28.3,-31.465 7.95,15.067 -2.99,42.492 -8.26,56.86 -8.81,24.074 -16.35,47.828 -19.92,73.328 -0.12,0.797 -0.22,1.632 -0.33,2.453 19.78,-4.524 33.98,10.476 31.11,22.105 -3.76,15.27 5.46,21.117 6.98,21.953 0.29,-0.039 0.51,-0.062 0.83,-0.117 29.04,-3.867 16.18,22.957 10.3,30.297 -0.26,0.32 -0.29,0.539 -0.36,0.781 0.41,0.375 0.8,0.723 1.2,1.106 6.85,1.199 39.6,-7.672 32.17,10.14 -8.8,21.094 9.93,22.043 9.93,22.043 50.45,-10.781 30.33,42.993 23.48,72.364 -6.83,29.39 9.89,50.047 9.89,50.047 17.46,20.976 19.13,60.597 16.56,94.535 11.33,17.53 21.93,35.53 31.55,54.08 5.67,10.9 12.49,23.12 18.67,35.76 0.36,0.34 0.64,0.83 0.87,1.4 0.27,0.69 0.6,1.45 0.89,2.17 2.83,5.98 5.49,11.99 7.78,18.04 2.05,4.64 4.15,9.35 6.17,14.16 8.93,21.17 20.25,53.81 3.96,74.75 -4.47,5.75 -11.32,9.13 -18.2,11.58 z"
         id="path174" /></clipPath><linearGradient
       x1="0"
       y1="0"
       x2="1"
       y2="0"
       gradientUnits="userSpaceOnUse"
       gradientTransform="matrix(2340,1230,1230,-2340,50.2859,-102.43)"
       spreadMethod="pad"
       id="linearGradient192"><stop
         style="stop-opacity:1;stop-color:#fce28d"
         offset="0"
         id="stop178" /><stop
         style="stop-opacity:1;stop-color:#fce28d"
         offset="0"
         id="stop180" /><stop
         style="stop-opacity:1;stop-color:#957427"
         offset="0.227907"
         id="stop182" /><stop
         style="stop-opacity:1;stop-color:#c09e4b"
         offset="0.413953"
         id="stop184" /><stop
         style="stop-opacity:1;stop-color:#eebc49"
         offset="0.586047"
         id="stop186" /><stop
         style="stop-opacity:1;stop-color:#c1a35c"
         offset="0.772093"
         id="stop188" /><stop
         style="stop-opacity:1;stop-color:#faf19f"
         offset="1"
         id="stop190" /></linearGradient><clipPath
       clipPathUnits="userSpaceOnUse"
       id="clipPath202"><path
         d="m 1862.97,1026.45 c 11.03,27.13 17.49,60.79 17.49,102.44 v 120.01 c -6.89,-1.16 -13.78,-2.48 -20.64,-4.29 -55.3,-14.45 -100.99,-44.98 -135.66,-85.98 V 930.988 c 40.68,2.266 79.31,15.926 108,46.274 12.37,13.093 22.79,29.428 30.81,49.188 z"
         id="path200" /></clipPath><linearGradient
       x1="0"
       y1="0"
       x2="1"
       y2="0"
       gradientUnits="userSpaceOnUse"
       gradientTransform="matrix(2340,1230,1230,-2340,-60.562,108.46)"
       spreadMethod="pad"
       id="linearGradient218"><stop
         style="stop-opacity:1;stop-color:#fce28d"
         offset="0"
         id="stop204" /><stop
         style="stop-opacity:1;stop-color:#fce28d"
         offset="0"
         id="stop206" /><stop
         style="stop-opacity:1;stop-color:#957427"
         offset="0.227907"
         id="stop208" /><stop
         style="stop-opacity:1;stop-color:#c09e4b"
         offset="0.413953"
         id="stop210" /><stop
         style="stop-opacity:1;stop-color:#eebc49"
         offset="0.586047"
         id="stop212" /><stop
         style="stop-opacity:1;stop-color:#c1a35c"
         offset="0.772093"
         id="stop214" /><stop
         style="stop-opacity:1;stop-color:#faf19f"
         offset="1"
         id="stop216" /></linearGradient><clipPath
       clipPathUnits="userSpaceOnUse"
       id="clipPath228"><path
         d="m 1413.61,1070.4 c -0.74,8.73 -1.17,17.7 -1.17,27.07 v 155.17 c -58.61,-1.03 -114.69,-14.66 -170.76,-34.91 -6.85,-2.5 -13.66,-5.95 -18.06,-11.73 -16.1,-21.12 -4.45,-53.64 4.7,-74.74 2.07,-4.78 4.2,-9.45 6.31,-14.07 2.33,-6.05 5.05,-12.03 7.95,-17.96 0.3,-0.73 0.64,-1.48 0.89,-2.17 0.27,-0.57 0.53,-1.01 0.9,-1.4 6.31,-12.57 13.25,-24.73 19.01,-35.57 11.66,-21.93 24.6,-43.14 38.66,-63.574 -0.59,-0.942 -45.6,-72.645 25.24,-142.051 0,0 7.35,-24.692 -10.4,-55.137 -17.77,-30.41 42.16,-20.797 43.21,-18.16 0,0 9.46,-14.152 7.03,-23.715 -2.43,-9.562 11.87,-9.844 17.86,-7.879 5.97,1.981 -3.29,-8.441 -3.81,-9.176 -0.48,-0.746 -3.71,-16.902 16.39,-9.82 0,0 18.89,-10.512 10.76,-24.625 -6.88,-11.914 1.74,-40.82 30.84,-33.558 -3.69,-22.672 -10.2,-44.172 -17.89,-65.907 -5.16,-14.41 -15.82,-41.937 -7.71,-56.925 12.33,-22.997 26.84,25.832 27.97,31.746 2.57,12.879 2.97,26.129 4.71,39.058 5.74,18.688 17.8,29.242 32.16,33.289 15.01,1.285 31.5,-0.886 38.07,-3.445 12.49,-4.883 22.53,-15.063 34.92,-20.422 16.61,-7.184 23.39,0.641 26.2,16.938 2.05,11.414 -1.73,23.226 0.95,34.586 3.97,16.648 20.61,12.585 33.02,17.535 28.64,11.359 30.51,42.41 35.83,68.375 V 868.09 c -14.46,0.539 -28.84,1.953 -42.96,4.242 -96.47,15.668 -180.27,73.645 -190.82,198.068 z"
         id="path226" /></clipPath><linearGradient
       x1="0"
       y1="0"
       x2="1"
       y2="0"
       gradientUnits="userSpaceOnUse"
       gradientTransform="matrix(2340,1230,1230,-2340,-77.2763,140.25)"
       spreadMethod="pad"
       id="linearGradient244"><stop
         style="stop-opacity:1;stop-color:#fce28d"
         offset="0"
         id="stop230" /><stop
         style="stop-opacity:1;stop-color:#fce28d"
         offset="0"
         id="stop232" /><stop
         style="stop-opacity:1;stop-color:#957427"
         offset="0.227907"
         id="stop234" /><stop
         style="stop-opacity:1;stop-color:#c09e4b"
         offset="0.413953"
         id="stop236" /><stop
         style="stop-opacity:1;stop-color:#eebc49"
         offset="0.586047"
         id="stop238" /><stop
         style="stop-opacity:1;stop-color:#c1a35c"
         offset="0.772093"
         id="stop240" /><stop
         style="stop-opacity:1;stop-color:#faf19f"
         offset="1"
         id="stop242" /></linearGradient></defs><sodipodi:namedview
     pagecolor="#ffffff"
     bordercolor="#666666"
     borderopacity="1"
     objecttolerance="10"
     gridtolerance="10"
     guidetolerance="10"
     inkscape:pageopacity="0"
     inkscape:pageshadow="2"
     inkscape:window-width="640"
     inkscape:window-height="480"
     id="namedview4" /><g
     id="g10"
     inkscape:groupmode="layer"
     inkscape:label="ink_ext_XXXXXX"
     transform="matrix(1.3333333,0,0,-1.3333333,0,174.93333)"><g
       id="g12"
       transform="scale(0.1)"><g
         id="g14"><g
           id="g16"
           clip-path="url(#clipPath20)"><path
             d="M 290.32,398.027 H 252.336 V 78.2188 H 343.75 V 62.5391 H 56.6914 V 80.1094 H 130.777 V 698.613 H 56.6914 v 19.473 H 517.785 l -2.844,-181.879 h -18.515 c 0,4.602 -3.805,16.863 -11.395,36.813 -3.648,9.972 -7.929,19.972 -12.832,30.035 -4.894,10.05 -10.363,20.293 -16.375,30.742 -6.019,10.449 -12.113,19.433 -18.281,26.953 -6.184,7.508 -12.832,13.648 -19.945,18.391 -8.543,5.707 -19.121,10.375 -31.703,14.011 -12.579,3.649 -27.262,5.461 -44.036,5.461 H 252.336 V 419.391 c 3.644,0 7.879,-0.039 12.711,-0.118 4.82,-0.078 10.558,-0.191 17.211,-0.343 6.648,-0.168 12.187,-0.285 16.609,-0.364 4.442,-0.089 8.004,-0.128 10.699,-0.128 13.93,0 25.918,0.644 35.969,1.902 10.051,1.273 18.399,3.098 25.051,5.465 16.453,5.859 27.445,16.539 33,32.054 3.793,10.45 6.602,21.887 8.43,34.317 1.82,12.414 2.73,26.078 2.73,40.949 H 433.27 V 272.66 h -17.579 c 0,36.879 -2.699,61.504 -8.07,73.844 -7.594,17.723 -19.148,30.305 -34.66,37.746 -9.027,4.281 -20.387,7.637 -34.07,10.09 -13.707,2.457 -29.879,3.687 -48.571,3.687"
             style="fill:url(#linearGradient36);fill-opacity:1;fill-rule:nonzero;stroke:none"
             id="path38" /></g></g><g
         id="g40"><g
           id="g42"
           clip-path="url(#clipPath46)"><path
             d="m 666.43,694.578 c 8.691,0.156 17.011,-1.543 24.922,-5.101 7.91,-3.563 14.921,-8.356 21.011,-14.36 6.102,-6.027 10.879,-12.902 14.364,-20.664 3.492,-7.75 5.14,-15.746 4.98,-23.973 -0.316,-9.984 -1.926,-19.046 -4.859,-27.195 -2.926,-8.148 -7.715,-15.551 -14.364,-22.195 -12.824,-13.137 -28.175,-19.703 -46.054,-19.703 -17.899,0 -32.93,6.566 -45.121,19.703 -12.028,12.98 -18.051,29.445 -18.051,49.39 0,16.774 6.097,31.735 18.289,44.872 12.031,12.503 26.984,18.906 44.883,19.226 z M 570.965,77.0195 h 45.601 V 459.285 h -45.601 v 15.668 H 763.293 V 459.285 H 716.762 V 77.0195 h 47.48 V 62.5391 H 570.965 v 14.4804"
             style="fill:url(#linearGradient62);fill-opacity:1;fill-rule:nonzero;stroke:none"
             id="path64" /></g></g><g
         id="g66"><g
           id="g68"
           clip-path="url(#clipPath72)"><path
             d="m 1104.25,215.199 v 95.211 c 0,23.91 -2.37,44.395 -7.12,61.5 -4.75,17.098 -11.17,31.656 -19.24,43.688 -15.99,24.062 -35.06,37.351 -57.22,39.894 h -9.73 c -27.069,0 -47.889,-16.785 -62.456,-50.344 -14.238,-33.558 -21.359,-78.347 -21.359,-134.386 0,-0.321 0.199,-1.313 0.598,-2.973 0.386,-1.66 0.586,-3.289 0.586,-4.867 0.476,-33.231 2.73,-61.961 6.773,-86.184 4.035,-24.218 9.852,-44.25 17.453,-60.066 7.582,-15.832 16.891,-27.6603 27.883,-35.4806 11.008,-7.8633 23.792,-12.0898 38.352,-12.7226 l 0.95,-1.1875 c 21.05,0 40.37,11.789 57.94,35.3667 17.73,23.43 26.59,60.954 26.59,112.551 z m -0.96,183.781 v 304.387 h -66.24 v 14.719 H 1203.5 V 77.0195 h 44.64 V 62.5391 H 1106.15 V 130.68 c -5.07,-14.41 -11.16,-26.551 -18.28,-36.4495 -7.13,-9.8907 -15.43,-17.6094 -24.94,-23.1524 -9.49,-5.3789 -19.34,-8.9375 -29.56,-10.6797 -10.2,-1.7382 -21.24,-2.6171 -33.12,-2.6171 h -9.727 c -17.257,0 -33.207,1.2187 -47.851,3.6796 -14.641,2.461 -28.129,7.4883 -40.481,15.0704 -14.242,9.039 -26.117,19.6406 -35.613,31.8277 -9.5,12.18 -17.816,25.961 -24.922,41.321 -7.293,15.82 -12.672,32.242 -16.156,49.261 -3.477,17.02 -5.227,35.098 -5.227,54.25 l 0.961,3.809 c 0.789,37.98 8.149,73.207 22.075,105.645 7.132,16.312 15.593,30.988 25.41,44.046 9.812,13.059 21.441,24.575 34.898,34.547 26.434,19.782 57.301,29.68 92.606,29.68 6.647,0 12.377,-0.078 17.207,-0.234 4.82,-0.164 8.82,-0.399 11.99,-0.719 35.94,-10.281 61.9,-33.957 77.87,-70.985"
             style="fill:url(#linearGradient88);fill-opacity:1;fill-rule:nonzero;stroke:none"
             id="path90" /></g></g><g
         id="g92"><g
           id="g94"
           clip-path="url(#clipPath98)"><path
             d="m 1430.24,305.672 h 165.26 c 0,3.469 -0.32,5.769 -0.95,6.875 -0.63,1.105 -0.94,3.328 -0.94,6.656 v 45.82 c -4.13,22.004 -8.52,39.973 -13.2,53.907 -4.66,13.918 -9.53,24.687 -14.6,32.285 -10.27,15.191 -27.93,22.789 -52.94,22.789 -22.32,-4.113 -39.49,-14.797 -51.52,-32.059 -6.02,-8.699 -11.08,-18.043 -15.2,-28.004 -4.12,-9.972 -7.2,-20.898 -9.26,-32.773 -2.05,-11.863 -3.64,-23.945 -4.74,-36.207 -1.12,-12.273 -1.75,-25.371 -1.91,-39.289 z m 271.16,-18.524 h -271.16 v -16.386 c 0,-0.793 -0.2,-1.903 -0.58,-3.332 -0.4,-1.41 -0.6,-2.282 -0.6,-2.61 0,-16.769 0.35,-32.398 1.07,-46.879 0.71,-14.492 1.94,-28.14 3.68,-40.961 1.74,-12.511 4.55,-24.378 8.42,-35.621 3.88,-11.238 9.15,-21.918 15.79,-32.05 6.65,-9.977 14.73,-17.8481 24.22,-23.6293 9.5,-5.7813 20.97,-9.9414 34.43,-12.4609 6.65,-1.2579 12.15,-2.379 16.5,-3.3282 4.35,-0.9414 7.64,-1.4218 9.86,-1.4218 18.52,0 37.51,5.4531 56.98,16.3828 19.63,11.0781 36.32,26.5894 50.1,46.5394 13.92,20.097 21.69,42.5 23.27,67.187 h 21.36 c -3.32,-27.699 -13.05,-52.547 -29.2,-74.558 -8.07,-11.059 -16.89,-21.051 -26.47,-29.9184 -9.58,-8.8516 -20.3,-16.2813 -32.18,-22.3008 -5.69,-2.8516 -11.39,-5.0391 -17.09,-6.5391 -5.7,-1.5 -11.48,-2.6133 -17.33,-3.332 -5.86,-0.6992 -11.64,-1.0899 -17.33,-1.1797 -5.7,-0.0586 -11.39,-0.1016 -17.09,-0.1016 -5.08,0 -9.51,0.043 -13.31,0.1016 -3.8,0.0898 -6.8,0.3594 -9.01,0.8203 -9.35,0.3203 -18.26,0.6797 -26.72,1.0781 -8.47,0.4024 -16.7,1.1836 -24.69,2.3829 -8,1.1992 -15.84,3.0781 -23.51,5.6875 -7.67,2.6093 -15.4,6.3828 -23.15,11.2695 -14.88,9.5 -28.21,20.6597 -40.01,33.4997 -11.79,12.813 -22.2,27.621 -31.23,44.391 -17.4,32.609 -26.11,68.551 -26.11,107.801 0,39.57 8.71,76.371 26.11,110.402 17.26,34.031 40.77,60.934 70.53,80.727 29.76,19.781 61.73,29.679 95.92,29.679 32.6,0 63.08,-9.023 91.41,-27.07 28.02,-17.723 50.74,-42.18 68.15,-73.363 17.1,-30.551 26.74,-64.184 28.97,-100.907"
             style="fill:url(#linearGradient114);fill-opacity:1;fill-rule:nonzero;stroke:none"
             id="path116" /></g></g><g
         id="g118"><g
           id="g120"
           clip-path="url(#clipPath124)"><path
             d="m 2053.74,484.695 h 12.59 V 356.23 h -13.77 c -11.24,36.583 -27.55,64.985 -48.91,85.254 -21.69,20.254 -46.86,30.383 -75.51,30.383 h -12.57 c -37.21,0 -58.97,-16.863 -65.31,-50.574 0,-17.727 4.56,-32.57 13.66,-44.523 9.1,-11.954 22.75,-21.719 40.96,-29.313 l 49.62,-20.426 c 26.74,-7.75 49.04,-16.859 66.84,-27.301 17.8,-10.449 31.94,-22.402 42.38,-35.859 20.57,-26.269 30.86,-54.133 30.86,-83.562 0,-2.059 -0.12,-4.278 -0.34,-6.661 -0.25,-2.367 -0.49,-4.668 -0.72,-6.878 -0.24,-2.219 -0.48,-4.2 -0.72,-5.942 -0.24,-1.738 -0.36,-3.078 -0.36,-4.027 -3.47,-24.539 -12.74,-45.039 -27.77,-61.5002 -7.29,-8.0703 -15.2,-14.6406 -23.75,-19.711 -8.54,-5.0703 -17.88,-9.4179 -28.02,-13.0507 -5.06,-1.7383 -9.92,-3.0078 -14.6,-3.8086 -4.67,-0.7813 -9.25,-1.3321 -13.77,-1.6602 -4.5,-0.3203 -9.03,-0.4297 -13.52,-0.3594 -4.53,0.0782 -9.07,0.1289 -13.66,0.1289 -0.8,0 -1.82,0.0391 -3.09,0.1211 -1.26,0.0704 -2.77,0.1875 -4.51,0.3594 -1.74,0.1485 -3.32,0.2695 -4.75,0.3594 -1.43,0.0703 -2.53,0.1016 -3.32,0.1016 -13.15,0.1679 -25.26,2.0703 -36.33,5.707 -11.08,3.6211 -21.17,8.0703 -30.28,13.293 -9.1,5.207 -17.3,10.7695 -24.56,16.6171 -7.29,5.8399 -13.77,11.1716 -19.47,15.9106 -5.55,0 -9.74,-2.207 -12.59,-6.661 -2.69,-4.2496 -5.54,-11.7066 -8.55,-22.3082 -1.59,-5.0703 -3,-8.7812 -4.28,-11.1484 -1.26,-2.3906 -2.53,-4.6133 -3.79,-6.6523 h -13.78 V 209.262 h 13.78 c 33.55,-91.16 81.83,-139.762 144.83,-145.7737 0.16,0 0.72,-0.0391 1.67,-0.1172 0.94,-0.0898 1.98,-0.1992 3.08,-0.3594 1.11,-0.1523 2.23,-0.2812 3.32,-0.3633 1.12,-0.0781 1.98,-0.1093 2.62,-0.1093 21.68,0 40.68,5.5429 56.98,16.6015 16.77,11.25 25.96,27.8004 27.55,49.6404 -1.59,19.149 -7.37,34.969 -17.34,47.489 -5.07,6.32 -12.19,12.742 -21.36,19.23 -9.19,6.488 -21.22,12.43 -36.1,17.809 l -83.57,30.152 c -15.36,5.539 -28.61,12.418 -39.78,20.66 -11.15,8.219 -20.34,17.449 -27.53,27.66 -7.21,10.199 -12.55,21.254 -16.04,33.117 -3.48,11.875 -5.22,24.29 -5.22,37.274 0,0.32 0.16,1.105 0.49,2.375 0.31,1.262 0.47,2.058 0.47,2.379 2.69,41.461 14.95,72.012 36.79,91.652 22.01,19.934 51.53,29.91 88.57,29.91 h 11.88 c 25.79,0 57.85,-14.871 96.15,-44.64 11.88,13.148 20.02,26.761 24.45,40.847"
             style="fill:url(#linearGradient140);fill-opacity:1;fill-rule:nonzero;stroke:none"
             id="path142" /></g></g><g
         id="g144"><g
           id="g146"
           clip-path="url(#clipPath150)"><path
             d="m 1511.11,1242.9 c -6.67,1.67 -13.35,2.9 -20.05,3.98 v -135.54 c 0,-14.68 0.97,-28.2 2.64,-40.82 10.74,-80.793 54.65,-120.586 116.27,-133.758 11.88,-2.543 24.33,-4.203 37.42,-4.844 v 226.602 c -35.06,40.53 -80.96,70.48 -136.28,84.38"
             style="fill:url(#linearGradient166);fill-opacity:1;fill-rule:nonzero;stroke:none"
             id="path168" /></g></g><g
         id="g170"><g
           id="g172"
           clip-path="url(#clipPath176)"><path
             d="m 2129.47,1222.12 c -56.02,19.62 -112.01,32.65 -170.38,33.21 v -134.75 c 0,-27.22 -2.97,-52.04 -8.2,-74.83 -20.45,-89.133 -78.7,-144.461 -158.92,-166.762 -21.21,-5.886 -43.85,-9.613 -67.81,-10.898 v -81.254 c 1.26,-6.027 2.52,-12.059 3.85,-18.086 5.75,-26.129 7.56,-57.914 36.72,-69.145 12.46,-4.808 29.05,-0.605 33.2,-17.199 2.79,-11.336 -0.87,-23.211 1.27,-34.597 3,-16.235 9.83,-24.036 26.39,-16.672 12.35,5.465 22.28,15.769 34.74,20.769 6.51,2.61 23,4.977 38,3.832 14.43,-3.922 26.56,-14.343 32.49,-32.968 1.86,-12.942 2.4,-26.192 5.08,-39.02 1.2,-5.898 16.21,-54.559 28.3,-31.465 7.95,15.067 -2.99,42.492 -8.26,56.86 -8.81,24.074 -16.35,47.828 -19.92,73.328 -0.12,0.797 -0.22,1.632 -0.33,2.453 19.78,-4.524 33.98,10.476 31.11,22.105 -3.76,15.27 5.46,21.117 6.98,21.953 0.29,-0.039 0.51,-0.062 0.83,-0.117 29.04,-3.867 16.18,22.957 10.3,30.297 -0.26,0.32 -0.29,0.539 -0.36,0.781 0.41,0.375 0.8,0.723 1.2,1.106 6.85,1.199 39.6,-7.672 32.17,10.14 -8.8,21.094 9.93,22.043 9.93,22.043 50.45,-10.781 30.33,42.993 23.48,72.364 -6.83,29.39 9.89,50.047 9.89,50.047 17.46,20.976 19.13,60.597 16.56,94.535 11.33,17.53 21.93,35.53 31.55,54.08 5.67,10.9 12.49,23.12 18.67,35.76 0.36,0.34 0.64,0.83 0.87,1.4 0.27,0.69 0.6,1.45 0.89,2.17 2.83,5.98 5.49,11.99 7.78,18.04 2.05,4.64 4.15,9.35 6.17,14.16 8.93,21.17 20.25,53.81 3.96,74.75 -4.47,5.75 -11.32,9.13 -18.2,11.58"
             style="fill:url(#linearGradient192);fill-opacity:1;fill-rule:nonzero;stroke:none"
             id="path194" /></g></g><g
         id="g196"><g
           id="g198"
           clip-path="url(#clipPath202)"><path
             d="m 1862.97,1026.45 c 11.03,27.13 17.49,60.79 17.49,102.44 v 120.01 c -6.89,-1.16 -13.78,-2.48 -20.64,-4.29 -55.3,-14.45 -100.99,-44.98 -135.66,-85.98 V 930.988 c 40.68,2.266 79.31,15.926 108,46.274 12.37,13.093 22.79,29.428 30.81,49.188"
             style="fill:url(#linearGradient218);fill-opacity:1;fill-rule:nonzero;stroke:none"
             id="path220" /></g></g><g
         id="g222"><g
           id="g224"
           clip-path="url(#clipPath228)"><path
             d="m 1413.61,1070.4 c -0.74,8.73 -1.17,17.7 -1.17,27.07 v 155.17 c -58.61,-1.03 -114.69,-14.66 -170.76,-34.91 -6.85,-2.5 -13.66,-5.95 -18.06,-11.73 -16.1,-21.12 -4.45,-53.64 4.7,-74.74 2.07,-4.78 4.2,-9.45 6.31,-14.07 2.33,-6.05 5.05,-12.03 7.95,-17.96 0.3,-0.73 0.64,-1.48 0.89,-2.17 0.27,-0.57 0.53,-1.01 0.9,-1.4 6.31,-12.57 13.25,-24.73 19.01,-35.57 11.66,-21.93 24.6,-43.14 38.66,-63.574 -0.59,-0.942 -45.6,-72.645 25.24,-142.051 0,0 7.35,-24.692 -10.4,-55.137 -17.77,-30.41 42.16,-20.797 43.21,-18.16 0,0 9.46,-14.152 7.03,-23.715 -2.43,-9.562 11.87,-9.844 17.86,-7.879 5.97,1.981 -3.29,-8.441 -3.81,-9.176 -0.48,-0.746 -3.71,-16.902 16.39,-9.82 0,0 18.89,-10.512 10.76,-24.625 -6.88,-11.914 1.74,-40.82 30.84,-33.558 -3.69,-22.672 -10.2,-44.172 -17.89,-65.907 -5.16,-14.41 -15.82,-41.937 -7.71,-56.925 12.33,-22.997 26.84,25.832 27.97,31.746 2.57,12.879 2.97,26.129 4.71,39.058 5.74,18.688 17.8,29.242 32.16,33.289 15.01,1.285 31.5,-0.886 38.07,-3.445 12.49,-4.883 22.53,-15.063 34.92,-20.422 16.61,-7.184 23.39,0.641 26.2,16.938 2.05,11.414 -1.73,23.226 0.95,34.586 3.97,16.648 20.61,12.585 33.02,17.535 28.64,11.359 30.51,42.41 35.83,68.375 V 868.09 c -14.46,0.539 -28.84,1.953 -42.96,4.242 -96.47,15.668 -180.27,73.645 -190.82,198.068"
             style="fill:url(#linearGradient244);fill-opacity:1;fill-rule:nonzero;stroke:none"
             id="path246" /></g></g><path
         d="m 153.496,931.574 h -11.73 V 1062.38 H 78.4063 V 931.574 H 66.7773 V 1072.65 H 153.496 V 931.574"
         style="fill:#1b1b1a;fill-opacity:1;fill-rule:nonzero;stroke:none"
         id="path248" /><path
         d="m 215.691,939.426 c 6.075,0 11.407,2.199 15.989,6.594 4.59,4.382 6.883,10.457 6.883,18.203 h 10.273 l 0.285,-0.578 c 0.195,-9.688 -3.066,-17.793 -9.785,-24.317 -6.719,-6.523 -14.602,-9.785 -23.645,-9.785 -12.078,0 -21.355,4.309 -27.851,12.93 -6.492,8.625 -9.735,19.718 -9.735,33.281 v 16.277 c 0,13.499 3.243,24.599 9.735,33.289 6.496,8.68 15.773,13.02 27.851,13.02 9.758,0 17.813,-3.41 24.18,-10.21 6.359,-6.82 9.445,-15.78 9.25,-26.9 l -0.195,-0.48 h -10.363 c 0,8.34 -2.176,14.98 -6.543,19.92 -4.356,4.94 -9.805,7.41 -16.329,7.41 -9.043,0 -15.625,-3.42 -19.765,-10.24 -4.129,-6.84 -6.199,-15.46 -6.199,-25.887 v -16.316 c 0,-10.547 2.07,-19.219 6.199,-26.016 4.14,-6.805 10.722,-10.195 19.765,-10.195"
         style="fill:#1b1b1a;fill-opacity:1;fill-rule:nonzero;stroke:none"
         id="path250" /><path
         d="m 326.543,1036.41 h 11.719 V 931.574 h -11.719 v 82.356 l -0.586,0.1 -43.605,-82.456 H 270.73 v 104.836 h 11.622 v -82.453 l 0.586,-0.098 43.605,82.551"
         style="fill:#1b1b1a;fill-opacity:1;fill-rule:nonzero;stroke:none"
         id="path252" /><path
         d="m 393.301,993.781 21.894,42.629 h 13.66 l -28.972,-51.543 30.137,-53.293 h -13.567 l -22.969,44.375 -22.957,-44.375 h -13.664 l 30.235,53.293 -29.071,51.543 h 13.563 l 21.711,-42.629"
         style="fill:#1b1b1a;fill-opacity:1;fill-rule:nonzero;stroke:none"
         id="path254" /><path
         d="m 453.172,976.125 c 0,-10.488 2.324,-19.227 6.973,-26.219 4.648,-6.984 11.3,-10.48 19.96,-10.48 8.458,0 15.051,3.508 19.766,10.527 4.719,7.031 7.07,15.75 7.07,26.172 v 15.441 c 0,10.294 -2.351,18.954 -7.07,25.974 -4.715,7.02 -11.336,10.54 -19.863,10.54 -8.594,0 -15.215,-3.52 -19.863,-10.54 -4.649,-7.02 -6.973,-15.68 -6.973,-25.974 z m -11.727,15.52 c 0,13.565 3.485,24.735 10.469,33.525 6.973,8.78 16.336,13.17 28.094,13.17 11.758,0 21.133,-4.37 28.144,-13.12 7.012,-8.75 10.52,-19.94 10.52,-33.575 v -15.403 c 0,-13.758 -3.496,-24.98 -10.469,-33.672 -6.973,-8.691 -16.34,-13.027 -28.098,-13.027 -11.824,0 -21.218,4.336 -28.191,13.027 -6.984,8.692 -10.469,19.914 -10.469,33.672 v 15.403"
         style="fill:#1b1b1a;fill-opacity:1;fill-rule:nonzero;stroke:none"
         id="path256" /><path
         d="M 606.934,1036.41 V 931.574 h -11.731 v 94.466 h -34.394 v -35.938 c 0,-20.61 -2.059,-35.52 -6.2,-44.719 -4.132,-9.207 -11.203,-13.809 -21.211,-13.809 h -3.781 l 0.188,10.656 3.105,0.094 c 5.809,0 9.981,3.528 12.5,10.571 2.52,7.039 3.778,19.429 3.778,37.207 v 46.308 h 57.746"
         style="fill:#1b1b1a;fill-opacity:1;fill-rule:nonzero;stroke:none"
         id="path258" /><path
         d="m 640.84,976.125 c 0,-10.488 2.324,-19.227 6.973,-26.219 4.648,-6.984 11.296,-10.48 19.96,-10.48 8.457,0 15.047,3.508 19.766,10.527 4.715,7.031 7.07,15.75 7.07,26.172 v 15.441 c 0,10.294 -2.355,18.954 -7.07,25.974 -4.719,7.02 -11.34,10.54 -19.863,10.54 -8.594,0 -15.215,-3.52 -19.863,-10.54 -4.649,-7.02 -6.973,-15.68 -6.973,-25.974 z m -11.731,15.52 c 0,13.565 3.489,24.735 10.469,33.525 6.973,8.78 16.34,13.17 28.098,13.17 11.758,0 21.133,-4.37 28.144,-13.12 7.012,-8.75 10.516,-19.94 10.516,-33.575 v -15.403 c 0,-13.758 -3.496,-24.98 -10.469,-33.672 -6.972,-8.691 -16.336,-13.027 -28.094,-13.027 -11.828,0 -21.222,4.336 -28.195,13.027 -6.98,8.692 -10.469,19.914 -10.469,33.672 v 15.403"
         style="fill:#1b1b1a;fill-opacity:1;fill-rule:nonzero;stroke:none"
         id="path260" /><path
         d="m 782.488,1026.04 h -42.441 v -94.466 h -11.719 v 104.836 h 54.16 v -10.37"
         style="fill:#1b1b1a;fill-opacity:1;fill-rule:nonzero;stroke:none"
         id="path262" /><path
         d="m 811.66,931.574 h -11.73 v 104.836 h 11.73 z m 0,134.676 h -11.73 v 16.47 h 11.73 v -16.47"
         style="fill:#1b1b1a;fill-opacity:1;fill-rule:nonzero;stroke:none"
         id="path264" /><path
         d="m 902.148,931.574 h -11.621 v 43.211 c -3.625,-1.422 -7.257,-2.535 -10.91,-3.336 -3.64,-0.812 -7.273,-1.211 -10.898,-1.211 -11.043,0 -19.356,3.028 -24.942,9.102 -5.593,6.07 -8.386,16.18 -8.386,30.33 v 26.74 h 11.726 v -26.74 c 0,-10.857 1.731,-18.447 5.188,-22.772 3.445,-4.328 8.925,-6.496 16.414,-6.496 3.75,0.071 7.453,0.508 11.094,1.309 3.652,0.812 7.218,1.926 10.714,3.352 v 51.347 h 11.621 V 931.574"
         style="fill:#1b1b1a;fill-opacity:1;fill-rule:nonzero;stroke:none"
         id="path266" /><path
         d="m 997.293,931.574 h -11.719 v 48.059 h -44.187 v -48.059 h -11.621 v 104.836 h 11.621 v -46.894 h 44.187 v 46.894 h 11.719 V 931.574"
         style="fill:#1b1b1a;fill-opacity:1;fill-rule:nonzero;stroke:none"
         id="path268" /><path
         d="m 1080.62,1036.41 h 11.72 V 931.574 h -11.72 v 82.356 l -0.58,0.1 -43.61,-82.456 h -11.62 v 104.836 h 11.62 v -82.453 l 0.59,-0.098 43.6,82.551"
         style="fill:#1b1b1a;fill-opacity:1;fill-rule:nonzero;stroke:none"
         id="path270" /><path
         d="m 1177.4,1077.97 0.29,-0.58 c 0.2,-7.23 -1.9,-13.13 -6.29,-17.68 -4.4,-4.55 -10.38,-6.83 -17.92,-6.83 -7.63,0 -13.64,2.28 -18.03,6.83 -4.4,4.55 -6.46,10.45 -6.2,17.68 l 0.29,0.58 h 9.11 c 0,-4.97 1.17,-8.97 3.54,-12.01 2.35,-3.04 6.11,-4.55 11.29,-4.55 4.9,0 8.57,1.54 10.99,4.65 2.42,3.09 3.63,7.07 3.63,11.91 z m -1.64,-41.56 h 11.72 V 931.574 h -11.72 v 82.356 l -0.58,0.1 -43.61,-82.456 h -11.62 v 104.836 h 11.62 v -82.453 l 0.59,-0.098 43.6,82.551"
         style="fill:#1b1b1a;fill-opacity:1;fill-rule:nonzero;stroke:none"
         id="path272" /><path
         d="m 64.6484,890.402 h 11.6211 v -94.953 h 44.1875 v 94.953 h 11.719 v -94.953 h 9.492 l -1.063,-40.984 H 130.047 V 785.57 H 64.6484 v 104.832"
         style="fill:#1b1b1a;fill-opacity:1;fill-rule:nonzero;stroke:none"
         id="path274" /><path
         d="m 193.016,882.074 c -7.293,0 -13.289,-3.332 -17.969,-9.98 -4.688,-6.66 -7.117,-14.864 -7.313,-24.61 h 48.34 v 4.454 c 0,8.652 -2.031,15.839 -6.105,21.562 -4.063,5.711 -9.715,8.574 -16.953,8.574 z m 1.652,-98.539 c -11.309,0 -20.539,4.242 -27.715,12.738 -7.168,8.497 -10.754,19.336 -10.754,32.508 v 17.442 c 0,13.242 3.606,24.238 10.801,32.988 7.207,8.75 15.879,13.125 26.016,13.125 10.988,0 19.511,-3.906 25.578,-11.727 6.074,-7.824 9.109,-18.332 9.109,-31.523 v -11.484 h -59.969 v -8.704 c 0,-10.164 2.422,-18.621 7.266,-25.371 4.844,-6.738 11.395,-10.105 19.668,-10.105 5.742,0 10.703,1.004 14.871,3.027 4.16,2.02 7.734,4.879 10.703,8.602 l 4.746,-8.203 c -3.164,-4.051 -7.246,-7.285 -12.254,-9.696 -5,-2.414 -11.027,-3.617 -18.066,-3.617"
         style="fill:#1b1b1a;fill-opacity:1;fill-rule:nonzero;stroke:none"
         id="path276" /><path
         d="m 316.172,785.57 h -11.719 v 48.055 H 260.262 V 785.57 h -11.621 v 104.832 h 11.621 v -46.894 h 44.191 v 46.894 h 11.719 V 785.57"
         style="fill:#1b1b1a;fill-opacity:1;fill-rule:nonzero;stroke:none"
         id="path278" /><path
         d="M 406.57,880.227 H 375.957 V 785.57 h -11.828 v 94.657 H 334.48 v 10.175 h 72.09 v -10.175"
         style="fill:#1b1b1a;fill-opacity:1;fill-rule:nonzero;stroke:none"
         id="path280" /><path
         d="m 483.789,843.039 c 0,11.453 -2.101,20.789 -6.301,28.008 -4.199,7.219 -10.359,10.832 -18.504,10.832 -5.754,0 -10.507,-1.723 -14.289,-5.149 -3.777,-3.437 -6.707,-7.902 -8.769,-13.398 V 810.41 c 2.129,-5.308 5.097,-9.469 8.918,-12.476 3.808,-3.008 8.554,-4.512 14.238,-4.512 8.133,0 14.285,3.211 18.457,9.656 4.168,6.438 6.25,14.973 6.25,25.586 z m 11.816,-14.258 c 0,-13.758 -2.949,-24.734 -8.859,-32.937 -5.918,-8.203 -14.07,-12.309 -24.473,-12.309 -5.867,0 -11.003,1.223 -15.398,3.684 -4.395,2.453 -8.039,6.008 -10.949,10.656 v -52.609 h -11.629 v 145.136 h 9.785 l 1.258,-14.433 c 2.91,5.226 6.594,9.269 11.047,12.109 4.461,2.844 9.656,4.258 15.605,4.258 10.528,0 18.758,-4.473 24.707,-13.418 5.938,-8.945 8.906,-20.879 8.906,-35.801 v -14.336"
         style="fill:#1b1b1a;fill-opacity:1;fill-rule:nonzero;stroke:none"
         id="path282" /></g></g></svg>
